<svg width="182" height="65" viewBox="0 0 182 65" fill="none" xmlns="http://www.w3.org/2000/svg">
<path d="M4.1 49H1.65L17.55 13.8H19.7L35.5 49H33.1L28.45 38.7H8.75L4.1 49ZM18.6 16.8L9.55 36.7H27.6L18.6 16.8ZM45.6582 49H43.4082V25.15H60.8582V27.2H45.6582V49ZM81.3305 24.55C84.8971 24.55 87.8138 25.7833 90.0805 28.25C92.3471 30.7167 93.4805 33.65 93.4805 37.05C93.4805 40.4833 92.3471 43.4333 90.0805 45.9C87.8138 48.3667 84.8971 49.6 81.3305 49.6C77.0971 49.6 73.8138 47.9833 71.4805 44.75V59H69.2305V25.15H71.4805V29.35C73.8471 26.15 77.1305 24.55 81.3305 24.55ZM80.9305 26.65C78.8638 26.65 76.9638 27.2 75.2305 28.3C73.4971 29.4 72.2471 30.8167 71.4805 32.55V41.55C72.2805 43.2833 73.5471 44.7167 75.2805 45.85C77.0471 46.95 78.9305 47.5 80.9305 47.5C83.8638 47.5 86.2971 46.5 88.2305 44.5C90.1971 42.4667 91.1805 39.9833 91.1805 37.05C91.1805 34.0833 90.1971 31.6167 88.2305 29.65C86.2971 27.65 83.8638 26.65 80.9305 26.65ZM105.975 44.55C108.008 46.5167 110.475 47.5 113.375 47.5C116.308 47.5 118.758 46.5167 120.725 44.55C122.725 42.55 123.725 40.0667 123.725 37.1C123.725 34.1333 122.725 31.65 120.725 29.65C118.758 27.65 116.308 26.65 113.375 26.65C110.441 26.65 107.975 27.65 105.975 29.65C104.008 31.6833 103.025 34.1667 103.025 37.1C103.025 40.0333 104.008 42.5167 105.975 44.55ZM122.475 45.95C120.141 48.3833 117.108 49.6 113.375 49.6C109.608 49.6 106.558 48.3833 104.225 45.95C101.891 43.5167 100.725 40.5667 100.725 37.1C100.725 33.6333 101.891 30.6833 104.225 28.25C106.591 25.7833 109.641 24.55 113.375 24.55C117.075 24.55 120.108 25.7833 122.475 28.25C124.841 30.7167 126.025 33.6667 126.025 37.1C126.025 40.5333 124.841 43.4833 122.475 45.95Z" fill="#E15601"/>
<path d="M112.42 45H109.54V31H115.66C117.167 31 118.353 31.3933 119.22 32.18C120.1 32.9533 120.54 33.9667 120.54 35.22C120.54 36.4867 120.1 37.5067 119.22 38.28C118.353 39.0667 117.167 39.46 115.66 39.46H112.42V45ZM112.42 33.52V37H115.46C116.153 37 116.693 36.8533 117.08 36.56C117.467 36.2533 117.66 35.82 117.66 35.26C117.66 34.7 117.467 34.2733 117.08 33.98C116.693 33.6733 116.153 33.52 115.46 33.52H112.42ZM126.793 40C126.793 40.8 127.053 41.4667 127.573 42C128.093 42.5333 128.753 42.8 129.553 42.8C130.353 42.8 131.013 42.5333 131.533 42C132.053 41.4533 132.313 40.7867 132.313 40C132.313 39.2 132.053 38.54 131.533 38.02C131.013 37.4867 130.353 37.22 129.553 37.22C128.753 37.22 128.093 37.4867 127.573 38.02C127.053 38.54 126.793 39.2 126.793 40ZM124.013 40C124.013 38.52 124.533 37.28 125.573 36.28C126.6 35.2667 127.926 34.76 129.553 34.76C131.18 34.76 132.506 35.2667 133.533 36.28C134.573 37.2933 135.093 38.5333 135.093 40C135.093 41.4933 134.573 42.7467 133.533 43.76C132.493 44.76 131.166 45.26 129.553 45.26C127.94 45.26 126.613 44.76 125.573 43.76C124.533 42.7467 124.013 41.4933 124.013 40ZM144.433 45.26C142.953 45.26 141.68 44.78 140.613 43.82C139.546 42.8333 139.013 41.5533 139.013 39.98C139.013 38.4067 139.546 37.1467 140.613 36.2C141.693 35.24 142.98 34.76 144.473 34.76C145.566 34.76 146.553 34.98 147.433 35.42V37.82C146.566 37.42 145.72 37.22 144.893 37.22C144.013 37.22 143.273 37.48 142.673 38C142.086 38.5067 141.793 39.1733 141.793 40C141.793 40.8267 142.093 41.5 142.693 42.02C143.293 42.54 144.026 42.8 144.893 42.8C145.92 42.8 146.82 42.5733 147.593 42.12V44.52C146.66 45.0133 145.606 45.26 144.433 45.26Z" fill="#4E8A6B"/>
</svg>
