<svg width="135" height="40" viewBox="0 0 135 40" fill="none" xmlns="http://www.w3.org/2000/svg">
<path d="M130.197 40H4.729C2.122 40 0 37.872 0 35.267V4.726C0 2.12 2.122 0 4.729 0H130.197C132.803 0 135 2.12 135 4.726V35.267C135 37.872 132.803 40 130.197 40Z" fill="#807C7C"/>
<path d="M134.032 35.268C134.032 37.384 132.318 39.098 130.198 39.098H4.72889C2.60989 39.098 0.889893 37.384 0.889893 35.268V4.72501C0.889893 2.61001 2.60989 0.890015 4.72889 0.890015H130.197C132.318 0.890015 134.031 2.61001 134.031 4.72501L134.032 35.268Z" fill="#373535"/>
<path d="M30.1281 19.784C30.0991 16.561 32.7671 14.993 32.8891 14.92C31.3781 12.717 29.0361 12.416 28.2131 12.392C26.2461 12.185 24.3381 13.569 23.3361 13.569C22.3141 13.569 20.7711 12.412 19.1081 12.446C16.9681 12.479 14.9661 13.718 13.8681 15.642C11.6021 19.565 13.2921 25.33 15.4631 28.501C16.5491 30.054 17.8181 31.788 19.4791 31.727C21.1041 31.66 21.7111 30.691 23.6721 30.691C25.6151 30.691 26.1851 31.727 27.8791 31.688C29.6231 31.66 30.7211 30.128 31.7691 28.561C33.0241 26.781 33.5281 25.028 33.5481 24.938C33.5071 24.924 30.1611 23.647 30.1281 19.784Z" fill="white"/>
<path d="M26.928 10.306C27.802 9.21298 28.4 7.72598 28.234 6.21698C26.969 6.27298 25.387 7.09198 24.476 8.16098C23.67 9.10298 22.95 10.647 23.136 12.099C24.557 12.205 26.016 11.382 26.928 10.306Z" fill="white"/>
<path d="M53.6449 31.504H51.3739L50.1299 27.595H45.8059L44.6209 31.504H42.4099L46.6939 18.196H49.3399L53.6449 31.504ZM49.7549 25.955L48.6299 22.48C48.5109 22.125 48.2879 21.289 47.9589 19.973H47.9189C47.7879 20.539 47.5769 21.375 47.2869 22.48L46.1819 25.955H49.7549Z" fill="white"/>
<path d="M64.6619 26.588C64.6619 28.22 64.2209 29.51 63.3389 30.457C62.5489 31.3 61.5679 31.721 60.3969 31.721C59.1329 31.721 58.2249 31.267 57.6719 30.359H57.6319V35.414H55.4999V25.067C55.4999 24.041 55.4729 22.988 55.4209 21.908H57.2959L57.4149 23.429H57.4549C58.1659 22.283 59.2449 21.711 60.6929 21.711C61.8249 21.711 62.7699 22.158 63.5259 23.053C64.2839 23.949 64.6619 25.127 64.6619 26.588ZM62.4899 26.666C62.4899 25.732 62.2799 24.962 61.8579 24.356C61.3969 23.724 60.7779 23.408 60.0019 23.408C59.4759 23.408 58.9979 23.584 58.5709 23.931C58.1429 24.281 57.8629 24.738 57.7319 25.304C57.6659 25.568 57.6329 25.784 57.6329 25.954V27.554C57.6329 28.252 57.8469 28.841 58.2749 29.322C58.7029 29.803 59.2589 30.043 59.9429 30.043C60.7459 30.043 61.3709 29.733 61.8179 29.115C62.2659 28.496 62.4899 27.68 62.4899 26.666Z" fill="white"/>
<path d="M75.699 26.588C75.699 28.22 75.258 29.51 74.375 30.457C73.586 31.3 72.605 31.721 71.434 31.721C70.17 31.721 69.262 31.267 68.71 30.359H68.67V35.414H66.538V25.067C66.538 24.041 66.511 22.988 66.459 21.908H68.334L68.453 23.429H68.493C69.203 22.283 70.282 21.711 71.731 21.711C72.862 21.711 73.807 22.158 74.565 23.053C75.32 23.949 75.699 25.127 75.699 26.588ZM73.527 26.666C73.527 25.732 73.316 24.962 72.894 24.356C72.433 23.724 71.816 23.408 71.039 23.408C70.512 23.408 70.035 23.584 69.607 23.931C69.179 24.281 68.9 24.738 68.769 25.304C68.704 25.568 68.67 25.784 68.67 25.954V27.554C68.67 28.252 68.884 28.841 69.31 29.322C69.738 29.802 70.294 30.043 70.98 30.043C71.783 30.043 72.408 29.733 72.855 29.115C73.303 28.496 73.527 27.68 73.527 26.666Z" fill="white"/>
<path d="M88.039 27.772C88.039 28.904 87.646 29.825 86.857 30.536C85.99 31.313 84.783 31.701 83.232 31.701C81.8 31.701 80.652 31.425 79.783 30.872L80.277 29.095C81.213 29.661 82.24 29.945 83.359 29.945C84.162 29.945 84.787 29.763 85.236 29.401C85.683 29.039 85.906 28.553 85.906 27.947C85.906 27.407 85.722 26.952 85.353 26.583C84.986 26.214 84.373 25.871 83.517 25.554C81.187 24.685 80.023 23.412 80.023 21.738C80.023 20.644 80.431 19.747 81.248 19.049C82.062 18.35 83.148 18.001 84.506 18.001C85.717 18.001 86.723 18.212 87.526 18.633L86.993 20.371C86.243 19.963 85.395 19.759 84.446 19.759C83.696 19.759 83.11 19.944 82.69 20.312C82.335 20.641 82.157 21.042 82.157 21.517C82.157 22.043 82.36 22.478 82.768 22.82C83.123 23.136 83.768 23.478 84.704 23.847C85.849 24.308 86.69 24.847 87.231 25.465C87.77 26.081 88.039 26.852 88.039 27.772Z" fill="white"/>
<path d="M95.0879 23.508H92.7379V28.167C92.7379 29.352 93.1519 29.944 93.9819 29.944C94.3629 29.944 94.6789 29.911 94.9289 29.845L94.9879 31.464C94.5679 31.621 94.0149 31.7 93.3299 31.7C92.4879 31.7 91.8299 31.443 91.3549 30.93C90.8819 30.416 90.6439 29.554 90.6439 28.343V23.506H89.2439V21.906H90.6439V20.149L92.7379 19.517V21.906H95.0879V23.508Z" fill="white"/>
<path d="M105.691 26.627C105.691 28.102 105.269 29.313 104.427 30.26C103.544 31.235 102.372 31.721 100.911 31.721C99.503 31.721 98.382 31.254 97.546 30.32C96.71 29.386 96.292 28.207 96.292 26.786C96.292 25.299 96.722 24.081 97.585 23.134C98.446 22.186 99.608 21.712 101.069 21.712C102.477 21.712 103.61 22.179 104.465 23.114C105.283 24.021 105.691 25.192 105.691 26.627ZM103.479 26.696C103.479 25.811 103.29 25.052 102.907 24.419C102.46 23.653 101.821 23.271 100.993 23.271C100.136 23.271 99.485 23.654 99.038 24.419C98.655 25.053 98.466 25.824 98.466 26.736C98.466 27.621 98.655 28.38 99.038 29.012C99.499 29.778 100.143 30.16 100.974 30.16C101.788 30.16 102.427 29.77 102.888 28.992C103.281 28.347 103.479 27.58 103.479 26.696Z" fill="white"/>
<path d="M112.621 23.783C112.41 23.744 112.185 23.724 111.949 23.724C111.199 23.724 110.619 24.007 110.211 24.574C109.856 25.074 109.678 25.706 109.678 26.469V31.504H107.547L107.567 24.93C107.567 23.824 107.54 22.817 107.487 21.909H109.344L109.422 23.745H109.481C109.706 23.114 110.061 22.606 110.547 22.225C111.022 21.882 111.535 21.711 112.088 21.711C112.285 21.711 112.463 21.725 112.621 21.75V23.783Z" fill="white"/>
<path d="M122.156 26.252C122.156 26.634 122.131 26.956 122.078 27.219H115.682C115.707 28.167 116.016 28.892 116.61 29.392C117.149 29.839 117.846 30.063 118.702 30.063C119.649 30.063 120.513 29.912 121.29 29.609L121.624 31.089C120.716 31.485 119.644 31.682 118.407 31.682C116.919 31.682 115.751 31.244 114.901 30.369C114.053 29.494 113.628 28.319 113.628 26.845C113.628 25.398 114.023 24.193 114.814 23.232C115.642 22.206 116.761 21.693 118.169 21.693C119.552 21.693 120.599 22.206 121.31 23.232C121.873 24.047 122.156 25.055 122.156 26.252ZM120.123 25.699C120.137 25.067 119.998 24.521 119.709 24.06C119.34 23.467 118.773 23.171 118.01 23.171C117.313 23.171 116.746 23.46 116.313 24.04C115.958 24.501 115.747 25.054 115.682 25.698H120.123V25.699Z" fill="white"/>
<path d="M43.424 7.27302C43.651 7.13702 43.907 7.02302 44.195 6.92902C44.482 6.83502 44.82 6.78802 45.209 6.78802C45.836 6.78802 46.33 6.93703 46.692 7.23403C47.054 7.53102 47.235 7.93203 47.235 8.43703C47.235 8.83803 47.114 9.17402 46.872 9.44602C46.63 9.71802 46.32 9.89903 45.945 9.98903V10.018C46.152 10.051 46.348 10.107 46.532 10.188C46.717 10.269 46.879 10.377 47.017 10.513C47.156 10.649 47.266 10.807 47.347 10.989C47.427 11.17 47.468 11.37 47.468 11.591C47.468 11.953 47.395 12.257 47.249 12.503C47.103 12.749 46.913 12.949 46.677 13.105C46.442 13.26 46.178 13.372 45.887 13.439C45.596 13.506 45.305 13.541 45.014 13.541C44.703 13.541 44.396 13.508 44.092 13.444C43.788 13.38 43.507 13.273 43.248 13.124L43.51 12.319C43.678 12.403 43.895 12.484 44.16 12.562C44.425 12.64 44.693 12.678 44.965 12.678C45.411 12.678 45.756 12.578 45.998 12.378C46.24 12.177 46.362 11.909 46.362 11.573C46.362 11.346 46.313 11.161 46.216 11.015C46.118 10.869 45.992 10.755 45.837 10.67C45.682 10.586 45.509 10.528 45.318 10.496C45.127 10.464 44.938 10.447 44.751 10.447H44.314V9.65002H44.751C44.951 9.65002 45.137 9.62502 45.309 9.57202C45.48 9.52102 45.629 9.44802 45.755 9.35402C45.881 9.26002 45.98 9.14802 46.051 9.01902C46.121 8.89002 46.157 8.74402 46.157 8.58202C46.157 8.29102 46.053 8.06302 45.846 7.89802C45.639 7.73302 45.361 7.65002 45.012 7.65002C44.773 7.65002 44.533 7.68902 44.294 7.76602C44.055 7.84402 43.841 7.92802 43.653 8.01802L43.424 7.27302Z" fill="white"/>
<path d="M51.7551 13.433L51.6782 12.89H51.6491C51.3331 13.323 50.8741 13.54 50.2721 13.54C50.0581 13.54 49.8651 13.504 49.6901 13.433C49.5151 13.362 49.3631 13.265 49.2341 13.142C49.1041 13.019 49.0051 12.874 48.9331 12.705C48.8621 12.537 48.8271 12.352 48.8271 12.152C48.8271 11.564 49.0661 11.122 49.5451 10.828C50.0241 10.534 50.7021 10.387 51.5821 10.387V10.3C51.5821 9.67905 51.2561 9.36905 50.6041 9.36905C50.1391 9.36905 49.7291 9.48605 49.3751 9.71805L49.1621 9.03005C49.5951 8.75905 50.1341 8.62305 50.7791 8.62305C52.0121 8.62305 52.6292 9.27305 52.6292 10.573V12.309C52.6292 12.794 52.6521 13.169 52.6971 13.434H51.7551V13.433ZM51.6101 11.086C51.0251 11.086 50.5892 11.16 50.3032 11.309C50.0172 11.458 49.8741 11.701 49.8741 12.037C49.8741 12.283 49.9411 12.467 50.0761 12.59C50.2111 12.713 50.3822 12.774 50.5882 12.774C50.7232 12.774 50.8511 12.75 50.9741 12.701C51.0961 12.653 51.2032 12.586 51.2962 12.502C51.3902 12.418 51.4651 12.316 51.5241 12.196C51.5821 12.076 51.6101 11.949 51.6101 11.813V11.086Z" fill="white"/>
<path d="M57.683 8.71899V9.58199H55.723V13.433H54.676V8.71899H57.683Z" fill="white"/>
<path d="M63.677 11.018C63.677 11.393 63.625 11.736 63.522 12.046C63.418 12.357 63.275 12.622 63.09 12.841C62.906 13.061 62.686 13.233 62.431 13.355C62.175 13.478 61.893 13.54 61.582 13.54C60.961 13.54 60.515 13.317 60.243 12.871H60.223V15.354H59.175V10.271C59.175 10.019 59.172 9.76503 59.165 9.50903C59.159 9.25403 59.149 8.99003 59.137 8.71803H60.058L60.117 9.46503H60.137C60.486 8.90303 61.016 8.62103 61.728 8.62103C62.005 8.62103 62.263 8.67903 62.499 8.79503C62.735 8.91203 62.94 9.07503 63.115 9.28503C63.29 9.49503 63.427 9.74703 63.527 10.042C63.627 10.337 63.677 10.662 63.677 11.018ZM62.611 11.057C62.611 10.824 62.583 10.609 62.528 10.412C62.473 10.215 62.392 10.047 62.286 9.90803C62.18 9.76903 62.05 9.65903 61.898 9.57803C61.746 9.49703 61.576 9.45703 61.388 9.45703C61.24 9.45703 61.094 9.49003 60.951 9.55403C60.808 9.61803 60.684 9.70603 60.578 9.81603C60.471 9.92603 60.386 10.059 60.321 10.214C60.256 10.369 60.223 10.534 60.223 10.709V11.495C60.223 11.669 60.25 11.831 60.306 11.98C60.361 12.129 60.438 12.258 60.538 12.368C60.638 12.478 60.758 12.564 60.897 12.625C61.036 12.687 61.189 12.717 61.357 12.717C61.752 12.717 62.059 12.567 62.279 12.266C62.499 11.965 62.611 11.561 62.611 11.057Z" fill="white"/>
<path d="M69.305 8.71899L68.111 11.988C67.827 12.764 67.55 13.399 67.282 13.894C67.013 14.389 66.757 14.749 66.511 14.976C66.149 15.299 65.764 15.497 65.356 15.567L65.104 14.685C65.375 14.614 65.634 14.475 65.88 14.268C66.125 14.061 66.322 13.803 66.472 13.492C66.524 13.389 66.549 13.318 66.549 13.279C66.549 13.24 66.529 13.166 66.491 13.056L64.783 8.71999H65.937L66.83 11.349C66.876 11.472 66.921 11.611 66.966 11.766C67.012 11.921 67.06 12.093 67.112 12.28H67.132C67.164 12.176 67.2 12.046 67.238 11.887C67.277 11.729 67.329 11.546 67.393 11.339L68.189 8.71999H69.305V8.71899Z" fill="white"/>
<path d="M71.1189 10.678H71.6029C71.9579 10.678 72.2339 10.614 72.4269 10.484C72.6199 10.354 72.7179 10.196 72.7179 10.008C72.7179 9.81401 72.6359 9.65901 72.4699 9.54301C72.3059 9.42701 72.0769 9.36801 71.7859 9.36801C71.5979 9.36801 71.4089 9.39901 71.2199 9.46001C71.0289 9.52201 70.8529 9.59801 70.6909 9.68801L70.4199 9.01001C70.6909 8.86201 70.9609 8.76001 71.2309 8.70501C71.4989 8.65001 71.7679 8.62201 72.0399 8.62201C72.2549 8.62201 72.4699 8.64301 72.6859 8.68501C72.9009 8.72701 73.0939 8.79801 73.2619 8.89801C73.4299 8.99801 73.5689 9.12901 73.6739 9.29101C73.7809 9.45301 73.8339 9.65301 73.8339 9.89301C73.8339 10.042 73.8049 10.173 73.7459 10.286C73.6889 10.399 73.6109 10.499 73.5139 10.586C73.4179 10.673 73.3089 10.745 73.1899 10.799C73.0709 10.854 72.9479 10.895 72.8269 10.921V10.95C72.9809 10.97 73.1319 11.009 73.2779 11.067C73.4229 11.125 73.5529 11.201 73.6709 11.295C73.7859 11.389 73.8799 11.502 73.9519 11.634C74.0219 11.767 74.0569 11.917 74.0569 12.085C74.0569 12.363 73.9909 12.596 73.8539 12.783C73.7189 12.971 73.5449 13.119 73.3339 13.229C73.1249 13.339 72.8929 13.418 72.6409 13.467C72.3889 13.515 72.1429 13.54 71.9049 13.54C71.6139 13.54 71.3249 13.509 71.0419 13.448C70.7569 13.386 70.5009 13.291 70.2739 13.162L70.5469 12.473C70.7149 12.564 70.9059 12.64 71.1229 12.701C71.3399 12.762 71.5609 12.793 71.7869 12.793C72.1419 12.793 72.4159 12.724 72.6069 12.585C72.7959 12.446 72.8919 12.273 72.8919 12.066C72.8919 11.93 72.8609 11.816 72.7959 11.722C72.7309 11.628 72.6399 11.552 72.5249 11.494C72.4079 11.436 72.2729 11.395 72.1169 11.373C71.9629 11.35 71.7929 11.339 71.6129 11.339H71.1189V10.678Z" fill="white"/>
<path d="M76.7151 8.71904V10.387C76.7151 10.769 76.7091 11.112 76.6951 11.415C76.6811 11.719 76.6661 12.039 76.6461 12.375L76.6661 12.394C76.7891 12.148 76.9101 11.908 77.0291 11.671C77.1501 11.435 77.2711 11.194 77.3941 10.948L78.5581 8.71704H79.9151V13.431H78.9251V11.763C78.9251 11.414 78.9351 11.065 78.9501 10.716C78.9661 10.366 78.9831 10.014 79.0031 9.65804H78.9541C78.8451 9.94904 78.7351 10.201 78.6241 10.415C78.5151 10.628 78.4051 10.848 78.2961 11.075C78.0951 11.463 77.8961 11.851 77.6981 12.239C77.5011 12.627 77.2921 13.025 77.0731 13.432H75.7161V8.71904H76.7151Z" fill="white"/>
<path d="M85.445 8.71899V9.58199H84.01V13.433H82.98V9.58199H81.554V8.71899H85.445Z" fill="white"/>
<path d="M90.7891 10.853C90.7891 10.943 90.7851 11.029 90.7791 11.11C90.7731 11.191 90.7631 11.264 90.7501 11.328H87.6071C87.6211 11.774 87.7611 12.119 88.0291 12.361C88.2971 12.603 88.6521 12.725 89.0911 12.725C89.5501 12.725 89.9741 12.651 90.3621 12.502L90.5261 13.23C90.0791 13.424 89.5531 13.521 88.9441 13.521C88.5771 13.521 88.2471 13.464 87.9561 13.351C87.6651 13.238 87.4191 13.078 87.2181 12.871C87.0191 12.664 86.8641 12.415 86.7571 12.124C86.6521 11.833 86.5991 11.507 86.5991 11.145C86.5991 10.783 86.6521 10.448 86.7571 10.141C86.8641 9.83404 87.0151 9.56704 87.2081 9.34104C87.4031 9.11404 87.6381 8.93704 87.9111 8.80704C88.1861 8.67804 88.4931 8.61304 88.8291 8.61304C89.1261 8.61304 89.3951 8.66604 89.6401 8.77304C89.8821 8.87904 90.0891 9.03104 90.2591 9.22904C90.4311 9.42604 90.5621 9.66304 90.6521 9.93704C90.7441 10.211 90.7891 10.517 90.7891 10.853ZM89.7891 10.582C89.7891 10.213 89.7011 9.91404 89.5231 9.68504C89.3451 9.45604 89.0881 9.34004 88.7521 9.34004C88.4471 9.34004 88.1901 9.45604 87.9771 9.68904C87.7641 9.92204 87.6411 10.219 87.6081 10.582H89.7891Z" fill="white"/>
<path d="M95.01 8.758C95.198 8.726 95.436 8.7 95.727 8.68C96.018 8.66 96.315 8.651 96.62 8.651C96.813 8.651 97.032 8.663 97.274 8.685C97.516 8.707 97.749 8.759 97.967 8.84C98.188 8.921 98.371 9.042 98.52 9.204C98.669 9.366 98.745 9.585 98.745 9.863C98.745 10.006 98.718 10.134 98.667 10.246C98.614 10.359 98.546 10.458 98.458 10.542C98.37 10.626 98.27 10.696 98.157 10.75C98.044 10.805 97.927 10.846 97.803 10.871L97.813 10.9C98.155 10.958 98.434 11.081 98.647 11.269C98.86 11.457 98.967 11.715 98.967 12.045C98.967 12.375 98.875 12.637 98.696 12.831C98.514 13.025 98.292 13.171 98.026 13.268C97.76 13.365 97.481 13.427 97.186 13.453C96.893 13.478 96.629 13.492 96.397 13.492C96.137 13.492 95.883 13.486 95.635 13.472C95.385 13.459 95.178 13.446 95.01 13.433V8.758ZM96.018 10.64H96.551C96.713 10.64 96.867 10.629 97.012 10.606C97.158 10.584 97.285 10.548 97.395 10.5C97.506 10.451 97.59 10.387 97.653 10.306C97.714 10.225 97.745 10.127 97.745 10.01C97.745 9.797 97.657 9.64 97.477 9.54C97.299 9.44 97.02 9.39 96.639 9.39C96.53 9.39 96.434 9.393 96.352 9.4C96.272 9.406 96.161 9.416 96.018 9.429V10.64ZM96.018 12.725C96.147 12.738 96.256 12.747 96.342 12.754C96.43 12.761 96.531 12.764 96.649 12.764C96.792 12.764 96.936 12.755 97.085 12.735C97.233 12.716 97.37 12.679 97.493 12.624C97.616 12.57 97.714 12.496 97.788 12.402C97.862 12.309 97.901 12.185 97.901 12.031C97.901 11.761 97.78 11.575 97.542 11.472C97.302 11.369 96.98 11.318 96.571 11.318H96.018V12.725Z" fill="white"/>
</svg>
